<svg width="709" height="74" viewBox="0 0 709 74" fill="none" xmlns="http://www.w3.org/2000/svg">
<path d="M0 0H709V18.5C709 49.1518 684.152 74 653.5 74H55.5C24.8482 74 0 49.1518 0 18.5V0Z" fill="url(#paint0_linear_24_57)"/>
<path d="M194.08 32.48L194 38.76H195.6C196.693 38.7333 197.667 38.72 198.52 38.72C199.373 38.72 200.32 38.7333 201.36 38.76H201.56C201.88 38.76 202.187 38.7733 202.48 38.8C202.8 38.8 203.107 38.8 203.4 38.8C203.72 38.8267 204.027 38.88 204.32 38.96C204.613 39.0133 204.907 39.08 205.2 39.16C205.653 39.32 206.027 39.56 206.32 39.88C206.587 40.2267 206.72 40.6133 206.72 41.04C206.72 41.1733 206.72 41.3333 206.72 41.52C206.72 41.68 206.693 41.8267 206.64 41.96C206.587 42.2533 206.413 42.52 206.12 42.76C205.987 42.9467 205.733 43.08 205.36 43.16C205.013 43.2667 204.667 43.3333 204.32 43.36C203.947 43.44 203.573 43.48 203.2 43.48H201.32L193.92 43.52L193.84 51.36L201.8 51.44H203.68C203.893 51.44 204.093 51.44 204.28 51.44C204.467 51.44 204.64 51.4533 204.8 51.48C205.013 51.5333 205.2 51.5733 205.36 51.6C205.547 51.6 205.72 51.6267 205.88 51.68C206.2 51.7867 206.467 51.9333 206.68 52.12C206.947 52.3867 207.12 52.6667 207.2 52.96C207.227 53.0933 207.24 53.24 207.24 53.4C207.267 53.5333 207.267 53.68 207.24 53.84C207.24 54.2667 207.107 54.6533 206.84 55C206.52 55.3733 206.147 55.6133 205.72 55.72C205.16 55.96 204.547 56.08 203.88 56.08C203.587 56.1067 203.28 56.12 202.96 56.12C202.64 56.12 202.333 56.1333 202.04 56.16H201.8C199.72 56.2133 197.56 56.2133 195.32 56.16C194.787 56.16 194.36 56.1467 194.04 56.12C193.72 56.12 193.427 56.12 193.16 56.12C192.92 56.12 192.667 56.12 192.4 56.12C192.133 56.12 191.787 56.12 191.36 56.12C190.747 56.1733 190.24 56.0667 189.84 55.8C189.547 55.6133 189.32 55.36 189.16 55.04C189.08 54.96 189.04 54.88 189.04 54.8C189.013 54.7467 188.987 54.7067 188.96 54.68C188.933 54.6533 188.907 54.6133 188.88 54.56C188.827 54.4267 188.787 54.2933 188.76 54.16C188.733 54 188.72 53.8533 188.72 53.72C188.693 53.5867 188.667 53.4533 188.64 53.32C188.64 53.1867 188.627 53.0533 188.6 52.92V52.28C188.6 52.1733 188.6 52.0667 188.6 51.96C188.627 51.8533 188.64 51.7467 188.64 51.64V48.52L188.72 42.76V37.44C188.72 36.48 188.72 35.6267 188.72 34.88C188.747 34.1333 188.773 33.32 188.8 32.44V32.24C188.827 31.9467 188.84 31.68 188.84 31.44C188.867 31.1733 188.88 30.9067 188.88 30.64C188.907 30.1067 189.053 29.5867 189.32 29.08C189.427 28.8667 189.533 28.68 189.64 28.52C189.773 28.36 189.947 28.2267 190.16 28.12C190.56 27.88 190.973 27.76 191.4 27.76C191.613 27.76 191.773 27.7733 191.88 27.8V27.76C192.36 27.76 192.747 27.76 193.04 27.76C193.333 27.76 193.613 27.76 193.88 27.76C194.173 27.76 194.48 27.76 194.8 27.76C195.12 27.7333 195.56 27.72 196.12 27.72C197.187 27.6933 198.2 27.68 199.16 27.68C200.12 27.68 201.107 27.6933 202.12 27.72H202.28C202.573 27.7467 202.88 27.76 203.2 27.76C203.52 27.76 203.827 27.7733 204.12 27.8C204.413 27.8 204.707 27.84 205 27.92C205.293 27.9733 205.587 28.0533 205.88 28.16C206.333 28.2933 206.707 28.52 207 28.84C207.24 29.2133 207.36 29.5867 207.36 29.96C207.36 30.12 207.36 30.28 207.36 30.44C207.36 30.5733 207.333 30.7067 207.28 30.84C207.253 31.1067 207.093 31.3867 206.8 31.68C206.693 31.7333 206.573 31.8 206.44 31.88C206.333 31.96 206.2 32.0267 206.04 32.08C205.88 32.1333 205.707 32.1733 205.52 32.2C205.36 32.2 205.2 32.2133 205.04 32.24C204.827 32.2933 204.627 32.32 204.44 32.32C204.28 32.32 204.093 32.32 203.88 32.32H202.08L194.08 32.36V32.48ZM215.233 39.16C216.033 38.76 216.873 38.48 217.753 38.32C218.633 38.1333 219.5 38.0933 220.353 38.2C221.233 38.28 222.073 38.5067 222.873 38.88C223.673 39.2267 224.42 39.7333 225.113 40.4C225.806 41.0933 226.34 41.8533 226.713 42.68C227.086 43.5067 227.353 44.4267 227.513 45.44C227.62 46.1333 227.793 46.7733 228.033 47.36C228.273 47.9467 228.526 48.5333 228.793 49.12C229.086 49.7067 229.353 50.2933 229.593 50.88C229.86 51.4667 230.073 52.08 230.233 52.72C230.366 53.3333 230.313 53.9333 230.073 54.52C229.86 55.08 229.406 55.4267 228.713 55.56C228.313 55.64 227.926 55.6133 227.553 55.48C227.206 55.32 226.886 55.1067 226.593 54.84C226.3 54.5467 226.033 54.24 225.793 53.92C225.58 53.5733 225.38 53.2533 225.193 52.96C224.58 53.76 223.913 54.3867 223.193 54.84C222.473 55.2667 221.606 55.5467 220.593 55.68C219.74 55.7867 218.926 55.8133 218.153 55.76C217.38 55.7067 216.553 55.56 215.673 55.32C214.526 55.0267 213.58 54.52 212.833 53.8C212.113 53.0533 211.553 52.2 211.153 51.24C210.78 50.2533 210.58 49.2 210.553 48.08C210.526 46.96 210.66 45.8533 210.953 44.76C211.326 43.32 211.886 42.1467 212.633 41.24C213.38 40.3333 214.246 39.64 215.233 39.16ZM216.233 43.84C215.86 44.2133 215.566 44.6533 215.353 45.16C215.14 45.6667 215.006 46.2 214.953 46.76C214.926 47.32 214.98 47.88 215.113 48.44C215.246 49 215.46 49.4933 215.753 49.92C216.02 50.2933 216.473 50.6133 217.113 50.88C217.753 51.12 218.42 51.2667 219.113 51.32C219.913 51.3733 220.606 51.16 221.193 50.68C221.806 50.2 222.26 49.6 222.553 48.88C222.873 48.1333 223.02 47.3467 222.993 46.52C222.966 45.6667 222.74 44.8933 222.313 44.2C221.993 43.6933 221.566 43.32 221.033 43.08C220.526 42.84 219.98 42.72 219.393 42.72C218.806 42.6933 218.22 42.7867 217.633 43C217.073 43.1867 216.606 43.4667 216.233 43.84ZM238.601 40.84C238.601 41.5867 238.601 42.4267 238.601 43.36C238.628 44.2933 238.641 45.2667 238.641 46.28C238.641 47.2667 238.641 48.2533 238.641 49.24C238.641 50.2 238.628 51.0933 238.601 51.92C238.574 52.32 238.534 52.76 238.481 53.24C238.428 53.6933 238.321 54.12 238.161 54.52C238.001 54.92 237.748 55.2533 237.401 55.52C237.081 55.76 236.641 55.8667 236.081 55.84C235.254 55.7867 234.654 55.4267 234.281 54.76C233.934 54.0933 233.734 53.16 233.681 51.96C233.681 51.3467 233.668 50.64 233.641 49.84C233.641 49.04 233.628 48.2267 233.601 47.4C233.601 46.5733 233.601 45.7733 233.601 45C233.601 44.2 233.601 43.48 233.601 42.84C233.601 42.4667 233.588 42.0133 233.561 41.48C233.561 40.9467 233.574 40.4 233.601 39.84C233.628 39.28 233.694 38.7467 233.801 38.24C233.908 37.7067 234.081 37.2667 234.321 36.92C234.508 36.7067 234.774 36.5467 235.121 36.44C235.468 36.3067 235.828 36.24 236.201 36.24C236.601 36.24 236.974 36.3067 237.321 36.44C237.694 36.5733 237.961 36.76 238.121 37C238.228 37.16 238.308 37.3867 238.361 37.68C238.414 37.9733 238.454 38.3067 238.481 38.68C238.534 39.0267 238.561 39.4 238.561 39.8C238.588 40.1733 238.601 40.52 238.601 40.84ZM237.081 32.76C236.254 32.9733 235.561 32.8933 235.001 32.52C234.468 32.12 234.134 31.5333 234.001 30.76C233.894 30.2 233.934 29.7067 234.121 29.28C234.308 28.8533 234.588 28.5333 234.961 28.32C235.334 28.08 235.761 27.9733 236.241 28C236.721 28.0267 237.201 28.2133 237.681 28.56C238.134 28.88 238.454 29.2533 238.641 29.68C238.854 30.1067 238.921 30.52 238.841 30.92C238.788 31.32 238.614 31.6933 238.321 32.04C238.028 32.36 237.614 32.6 237.081 32.76ZM242.836 57.64C242.462 57.5867 242.169 57.3733 241.956 57C241.822 56.8133 241.756 56.56 241.756 56.24C241.782 55.9467 241.836 55.64 241.916 55.32C242.022 54.9733 242.142 54.64 242.276 54.32C242.409 54 242.556 53.72 242.716 53.48C242.876 53.24 243.102 52.9067 243.396 52.48C243.689 52.0533 244.009 51.6267 244.356 51.2C244.702 50.7467 245.049 50.3467 245.396 50C245.769 49.6267 246.102 49.4 246.396 49.32C246.742 49.24 247.089 49.28 247.436 49.44C247.809 49.5733 248.116 49.7733 248.356 50.04C248.622 50.28 248.809 50.5733 248.916 50.92C249.049 51.24 249.049 51.5467 248.916 51.84C248.809 52.08 248.596 52.3733 248.276 52.72C247.956 53.0667 247.609 53.4267 247.236 53.8C246.862 54.1467 246.502 54.4933 246.156 54.84C245.809 55.16 245.556 55.4133 245.396 55.6C245.262 55.7867 245.089 56 244.876 56.24C244.689 56.48 244.476 56.7067 244.236 56.92C244.022 57.16 243.796 57.3467 243.556 57.48C243.316 57.6133 243.076 57.6667 242.836 57.64ZM279.354 50.52C279.674 50.44 279.994 50.3867 280.314 50.36C280.661 50.3333 280.967 50.3733 281.234 50.48C281.527 50.5867 281.767 50.7733 281.954 51.04C282.141 51.28 282.234 51.6267 282.234 52.08C282.234 52.4 282.154 52.7067 281.994 53C281.834 53.2933 281.634 53.56 281.394 53.8C281.154 54.04 280.887 54.2533 280.594 54.44C280.301 54.6 280.021 54.7333 279.754 54.84C278.981 55.1867 278.087 55.4533 277.074 55.64C276.087 55.8267 275.061 55.8933 273.994 55.84C272.554 55.7867 271.167 55.5067 269.834 55C268.527 54.4667 267.501 53.6 266.754 52.4C266.061 51.2267 265.647 49.92 265.514 48.48C265.381 47.04 265.447 45.68 265.714 44.4C266.007 42.8533 266.501 41.6 267.194 40.64C267.914 39.6533 268.767 38.8667 269.754 38.28C270.954 37.5867 272.301 37.2267 273.794 37.2C275.287 37.1733 276.714 37.4667 278.074 38.08C278.981 38.48 279.794 39.0267 280.514 39.72C281.234 40.3867 281.781 41.2 282.154 42.16C282.261 42.4 282.341 42.6933 282.394 43.04C282.474 43.3867 282.527 43.76 282.554 44.16C282.581 44.5333 282.581 44.9067 282.554 45.28C282.527 45.6533 282.461 45.9867 282.354 46.28C282.194 46.76 281.994 47.1333 281.754 47.4C281.514 47.6667 281.207 47.8667 280.834 48C280.461 48.1333 280.007 48.2267 279.474 48.28C278.967 48.3067 278.354 48.3333 277.634 48.36C276.994 48.3867 276.394 48.4 275.834 48.4C275.274 48.4 274.701 48.4 274.114 48.4C273.527 48.3733 272.914 48.36 272.274 48.36C271.661 48.3333 270.967 48.3067 270.194 48.28C270.114 48.8133 270.181 49.28 270.394 49.68C270.634 50.0533 270.954 50.3733 271.354 50.64C271.754 50.88 272.207 51.0667 272.714 51.2C273.221 51.3333 273.714 51.4133 274.194 51.44C275.101 51.4933 275.967 51.4267 276.794 51.24C277.621 51.0267 278.474 50.7867 279.354 50.52ZM277.634 42.76C277.127 42.1733 276.594 41.7467 276.034 41.48C275.607 41.2933 275.154 41.2133 274.674 41.24C274.221 41.24 273.781 41.3067 273.354 41.44C272.581 41.6267 271.927 42.0267 271.394 42.64C271.341 42.6933 271.247 42.8267 271.114 43.04C270.981 43.2267 270.847 43.4267 270.714 43.64C270.607 43.8533 270.527 44.0533 270.474 44.24C270.421 44.4267 270.447 44.52 270.554 44.52H278.394C278.367 44.1467 278.301 43.84 278.194 43.6C278.087 43.3333 277.901 43.0533 277.634 42.76ZM302.228 46.48C302.174 47.36 302.121 48.2533 302.068 49.16C302.014 50.04 301.868 50.8933 301.628 51.72C301.414 52.5467 301.068 53.2933 300.588 53.96C300.134 54.6267 299.481 55.16 298.628 55.56C297.881 55.9333 297.081 56.1867 296.228 56.32C295.374 56.48 294.521 56.5467 293.668 56.52C292.814 56.4933 291.988 56.36 291.188 56.12C290.388 55.9067 289.668 55.6 289.028 55.2C288.388 54.8 287.868 54.28 287.468 53.64C287.068 53 286.748 52.3067 286.508 51.56C286.294 50.8133 286.148 50.04 286.068 49.24C285.988 48.44 285.934 47.6933 285.908 47C285.801 45.16 285.801 43.3467 285.908 41.56C285.908 41.2133 285.908 40.8267 285.908 40.4C285.908 39.9467 285.934 39.5067 285.988 39.08C286.068 38.6533 286.188 38.2667 286.348 37.92C286.508 37.5467 286.774 37.2667 287.148 37.08C287.948 36.6533 288.681 36.6267 289.348 37C290.041 37.3733 290.454 38.1467 290.588 39.32C290.668 39.9333 290.694 40.6133 290.668 41.36C290.668 42.1067 290.694 42.7867 290.748 43.4C290.774 44.3067 290.801 45.2933 290.828 46.36C290.854 47.4 291.001 48.3333 291.268 49.16C291.561 49.9867 292.028 50.6133 292.668 51.04C293.334 51.44 294.321 51.4533 295.628 51.08C296.241 50.8933 296.641 50.4267 296.828 49.68C297.041 48.9333 297.148 47.8267 297.148 46.36C297.148 45.72 297.134 45.0133 297.108 44.24C297.081 43.4667 297.068 42.7067 297.068 41.96C297.068 41.1867 297.081 40.48 297.108 39.84C297.161 39.1733 297.241 38.6667 297.348 38.32C297.481 37.84 297.761 37.48 298.188 37.24C298.614 37 299.068 36.88 299.548 36.88C300.028 36.8533 300.481 36.9467 300.908 37.16C301.334 37.3733 301.628 37.72 301.788 38.2C301.948 38.6267 302.054 39.1733 302.108 39.84C302.188 40.48 302.241 41.1867 302.268 41.96C302.294 42.7067 302.294 43.48 302.268 44.28C302.268 45.0533 302.254 45.7867 302.228 46.48ZM327.066 48.96C326.56 48.64 325.986 48.3867 325.346 48.2C324.733 48.0133 324.093 47.84 323.426 47.68C322.786 47.52 322.16 47.3467 321.546 47.16C320.933 46.9467 320.373 46.6533 319.866 46.28C318.773 45.4533 318.133 44.44 317.946 43.24C317.786 42.0133 318.053 40.7867 318.746 39.56C319.12 38.92 319.613 38.4 320.226 38C320.84 37.5733 321.506 37.2533 322.226 37.04C322.973 36.8 323.733 36.6667 324.506 36.64C325.28 36.6133 326.013 36.6533 326.706 36.76C327.16 36.84 327.64 36.96 328.146 37.12C328.653 37.2533 329.12 37.44 329.546 37.68C330 37.92 330.4 38.2267 330.746 38.6C331.12 38.9467 331.386 39.3867 331.546 39.92C331.653 40.2667 331.666 40.6 331.586 40.92C331.533 41.24 331.4 41.5067 331.186 41.72C331 41.9333 330.746 42.0933 330.426 42.2C330.133 42.3067 329.813 42.3333 329.466 42.28C329.066 42.2 328.693 42.08 328.346 41.92C328 41.76 327.653 41.5867 327.306 41.4C326.96 41.2133 326.6 41.0533 326.226 40.92C325.88 40.7867 325.506 40.72 325.106 40.72C324.493 40.6933 323.986 40.8 323.586 41.04C323.186 41.28 322.906 41.5733 322.746 41.92C322.613 42.2667 322.626 42.64 322.786 43.04C322.973 43.44 323.346 43.7867 323.906 44.08C324.413 44.3467 324.973 44.56 325.586 44.72C326.2 44.88 326.8 45.04 327.386 45.2C328 45.36 328.586 45.5467 329.146 45.76C329.733 45.9733 330.253 46.2667 330.706 46.64C331.586 47.36 332.12 48.2 332.306 49.16C332.52 50.12 332.466 51.0667 332.146 52C331.826 52.9333 331.266 53.76 330.466 54.48C329.693 55.2 328.773 55.68 327.706 55.92C326.933 56.08 326.093 56.16 325.186 56.16C324.306 56.16 323.426 56.0667 322.546 55.88C321.693 55.6933 320.866 55.4 320.066 55C319.293 54.6 318.64 54.0933 318.106 53.48C317.733 53.0533 317.533 52.5733 317.506 52.04C317.506 51.48 317.613 51 317.826 50.6C318.066 50.1733 318.4 49.88 318.826 49.72C319.253 49.56 319.733 49.6533 320.266 50C320.693 50.2933 321.2 50.5867 321.786 50.88C322.373 51.1467 322.96 51.36 323.546 51.52C324.133 51.68 324.693 51.76 325.226 51.76C325.786 51.76 326.266 51.64 326.666 51.4C327.253 51.0267 327.56 50.6 327.586 50.12C327.613 49.6133 327.44 49.2267 327.066 48.96ZM340.83 37.92C341.71 37.4933 342.63 37.1867 343.59 37C344.55 36.8133 345.497 36.7733 346.43 36.88C347.39 36.9867 348.31 37.24 349.19 37.64C350.097 38.04 350.924 38.6 351.67 39.32C352.284 39.9333 352.817 40.68 353.27 41.56C353.724 42.4133 354.057 43.2533 354.27 44.08C354.724 45.5467 354.79 47.0267 354.47 48.52C354.15 50.0133 353.604 51.4 352.83 52.68C352.457 53.2667 351.99 53.8 351.43 54.28C350.897 54.7333 350.324 55.1067 349.71 55.4C348.91 55.7733 348.044 56.0267 347.11 56.16C346.177 56.32 345.27 56.36 344.39 56.28C342.79 56.2 341.377 55.8 340.15 55.08C338.95 54.36 337.977 53.44 337.23 52.32C336.51 51.2 336.03 49.9333 335.79 48.52C335.577 47.08 335.67 45.6133 336.07 44.12C336.497 42.52 337.11 41.2267 337.91 40.24C338.737 39.2267 339.71 38.4533 340.83 37.92ZM342.03 43.28C341.63 43.6533 341.324 44.12 341.11 44.68C340.897 45.24 340.764 45.8267 340.71 46.44C340.657 47.0267 340.697 47.6267 340.83 48.24C340.99 48.8267 341.23 49.36 341.55 49.84C341.817 50.24 342.297 50.5733 342.99 50.84C343.684 51.1067 344.404 51.2667 345.15 51.32C346.004 51.3733 346.75 51.1467 347.39 50.64C348.03 50.1067 348.51 49.4533 348.83 48.68C349.177 47.9067 349.337 47.0667 349.31 46.16C349.284 45.2533 349.044 44.4267 348.59 43.68C348.27 43.1467 347.817 42.76 347.23 42.52C346.67 42.2533 346.07 42.12 345.43 42.12C344.817 42.0933 344.204 42.1867 343.59 42.4C342.977 42.5867 342.457 42.88 342.03 43.28ZM374.298 46.48C374.244 47.36 374.191 48.2533 374.138 49.16C374.084 50.04 373.938 50.8933 373.698 51.72C373.484 52.5467 373.138 53.2933 372.658 53.96C372.204 54.6267 371.551 55.16 370.698 55.56C369.951 55.9333 369.151 56.1867 368.298 56.32C367.444 56.48 366.591 56.5467 365.738 56.52C364.884 56.4933 364.058 56.36 363.258 56.12C362.458 55.9067 361.738 55.6 361.098 55.2C360.458 54.8 359.938 54.28 359.538 53.64C359.138 53 358.818 52.3067 358.578 51.56C358.364 50.8133 358.218 50.04 358.138 49.24C358.058 48.44 358.004 47.6933 357.978 47C357.871 45.16 357.871 43.3467 357.978 41.56C357.978 41.2133 357.978 40.8267 357.978 40.4C357.978 39.9467 358.004 39.5067 358.058 39.08C358.138 38.6533 358.258 38.2667 358.418 37.92C358.578 37.5467 358.844 37.2667 359.218 37.08C360.018 36.6533 360.751 36.6267 361.418 37C362.111 37.3733 362.524 38.1467 362.658 39.32C362.738 39.9333 362.764 40.6133 362.738 41.36C362.738 42.1067 362.764 42.7867 362.818 43.4C362.844 44.3067 362.871 45.2933 362.898 46.36C362.924 47.4 363.071 48.3333 363.338 49.16C363.631 49.9867 364.098 50.6133 364.738 51.04C365.404 51.44 366.391 51.4533 367.698 51.08C368.311 50.8933 368.711 50.4267 368.898 49.68C369.111 48.9333 369.218 47.8267 369.218 46.36C369.218 45.72 369.204 45.0133 369.178 44.24C369.151 43.4667 369.138 42.7067 369.138 41.96C369.138 41.1867 369.151 40.48 369.178 39.84C369.231 39.1733 369.311 38.6667 369.418 38.32C369.551 37.84 369.831 37.48 370.258 37.24C370.684 37 371.138 36.88 371.618 36.88C372.098 36.8533 372.551 36.9467 372.978 37.16C373.404 37.3733 373.698 37.72 373.858 38.2C374.018 38.6267 374.124 39.1733 374.178 39.84C374.258 40.48 374.311 41.1867 374.338 41.96C374.364 42.7067 374.364 43.48 374.338 44.28C374.338 45.0533 374.324 45.7867 374.298 46.48ZM410.697 29.64C410.723 29.8267 410.737 30 410.737 30.16C410.737 30.32 410.737 30.48 410.737 30.64V32.28L410.497 53.04V53.44C410.497 53.6 410.457 53.84 410.377 54.16C410.35 54.2933 410.31 54.44 410.257 54.6C410.203 54.7333 410.15 54.88 410.097 55.04C409.963 55.36 409.777 55.6 409.537 55.76C409.323 55.9733 408.977 56.12 408.497 56.2C407.75 56.36 407.07 56.2933 406.457 56C406.11 55.7867 405.87 55.52 405.737 55.2C405.683 55.1467 405.63 55.0667 405.577 54.96C405.577 54.9067 405.55 54.8267 405.497 54.72C405.443 54.5867 405.403 54.4533 405.377 54.32C405.35 54.16 405.323 54 405.297 53.84C405.297 53.7067 405.283 53.5733 405.257 53.44C405.257 53.3067 405.243 53.1733 405.217 53.04C405.163 52.9067 405.137 52.8 405.137 52.72C405.137 52.6133 405.137 52.4933 405.137 52.36C405.19 52.2533 405.217 52.0533 405.217 51.76L405.257 48.6L405.297 43.56H403.137L395.017 43.6L394.937 53.04V53.44C394.937 53.6 394.897 53.84 394.817 54.16C394.79 54.2933 394.75 54.44 394.697 54.6C394.643 54.7333 394.59 54.88 394.537 55.04C394.403 55.36 394.217 55.6 393.977 55.76C393.763 55.9733 393.417 56.12 392.937 56.2C392.19 56.36 391.51 56.2933 390.897 56C390.63 55.84 390.377 55.5733 390.137 55.2C390.083 55.0933 390.057 55.0133 390.057 54.96L389.937 54.72C389.883 54.5867 389.843 54.4533 389.817 54.32C389.79 54.16 389.763 54 389.737 53.84C389.737 53.7067 389.723 53.5733 389.697 53.44C389.67 53.3067 389.643 53.1733 389.617 53.04C389.59 52.8267 389.59 52.6 389.617 52.36V51.76L389.657 48.6L389.737 42.72C389.763 41.8667 389.777 40.9867 389.777 40.08C389.777 39.1733 389.777 38.24 389.777 37.28C389.75 36.32 389.737 35.4667 389.737 34.72C389.763 33.9733 389.803 33.1333 389.857 32.2V32.04C389.883 31.7733 389.897 31.5067 389.897 31.24C389.897 30.9467 389.91 30.6533 389.937 30.36C389.963 30.0933 390.003 29.84 390.057 29.6C390.137 29.3333 390.243 29.0667 390.377 28.8C390.457 28.5867 390.563 28.4133 390.697 28.28C390.83 28.12 390.99 27.9733 391.177 27.84C391.603 27.6267 392.03 27.52 392.457 27.52C392.67 27.52 392.857 27.5333 393.017 27.56C393.177 27.56 393.337 27.5733 393.497 27.6C393.817 27.6267 394.123 27.7867 394.417 28.08C394.63 28.2667 394.777 28.48 394.857 28.72C394.99 29.0667 395.07 29.3733 395.097 29.64C395.123 29.8267 395.137 30 395.137 30.16C395.137 30.32 395.137 30.48 395.137 30.64V32.28L395.057 38.88C395.27 38.88 395.51 38.88 395.777 38.88C396.07 38.88 396.403 38.8667 396.777 38.84C398.163 38.84 399.537 38.8533 400.897 38.88C402.283 38.9067 403.737 38.92 405.257 38.92H405.297C405.297 37.72 405.297 36.5733 405.297 35.48C405.323 34.3867 405.363 33.24 405.417 32.04C405.417 31.7733 405.417 31.5067 405.417 31.24C405.443 30.9467 405.47 30.6533 405.497 30.36C405.523 30.0933 405.563 29.84 405.617 29.6C405.697 29.3333 405.803 29.0667 405.937 28.8C405.99 28.5867 406.083 28.4133 406.217 28.28C406.377 28.12 406.563 27.9733 406.777 27.84C407.15 27.6267 407.563 27.52 408.017 27.52C408.23 27.52 408.417 27.5333 408.577 27.56C408.763 27.56 408.923 27.5733 409.057 27.6C409.43 27.6533 409.737 27.8133 409.977 28.08C410.19 28.2133 410.337 28.4267 410.417 28.72C410.47 28.88 410.51 29.04 410.537 29.2C410.59 29.3333 410.643 29.48 410.697 29.64ZM419.851 40.84C419.851 41.5867 419.851 42.4267 419.851 43.36C419.878 44.2933 419.891 45.2667 419.891 46.28C419.891 47.2667 419.891 48.2533 419.891 49.24C419.891 50.2 419.878 51.0933 419.851 51.92C419.824 52.32 419.784 52.76 419.731 53.24C419.678 53.6933 419.571 54.12 419.411 54.52C419.251 54.92 418.998 55.2533 418.651 55.52C418.331 55.76 417.891 55.8667 417.331 55.84C416.504 55.7867 415.904 55.4267 415.531 54.76C415.184 54.0933 414.984 53.16 414.931 51.96C414.931 51.3467 414.918 50.64 414.891 49.84C414.891 49.04 414.878 48.2267 414.851 47.4C414.851 46.5733 414.851 45.7733 414.851 45C414.851 44.2 414.851 43.48 414.851 42.84C414.851 42.4667 414.838 42.0133 414.811 41.48C414.811 40.9467 414.824 40.4 414.851 39.84C414.878 39.28 414.944 38.7467 415.051 38.24C415.158 37.7067 415.331 37.2667 415.571 36.92C415.758 36.7067 416.024 36.5467 416.371 36.44C416.718 36.3067 417.078 36.24 417.451 36.24C417.851 36.24 418.224 36.3067 418.571 36.44C418.944 36.5733 419.211 36.76 419.371 37C419.478 37.16 419.558 37.3867 419.611 37.68C419.664 37.9733 419.704 38.3067 419.731 38.68C419.784 39.0267 419.811 39.4 419.811 39.8C419.838 40.1733 419.851 40.52 419.851 40.84ZM418.331 32.76C417.504 32.9733 416.811 32.8933 416.251 32.52C415.718 32.12 415.384 31.5333 415.251 30.76C415.144 30.2 415.184 29.7067 415.371 29.28C415.558 28.8533 415.838 28.5333 416.211 28.32C416.584 28.08 417.011 27.9733 417.491 28C417.971 28.0267 418.451 28.2133 418.931 28.56C419.384 28.88 419.704 29.2533 419.891 29.68C420.104 30.1067 420.171 30.52 420.091 30.92C420.038 31.32 419.864 31.6933 419.571 32.04C419.278 32.36 418.864 32.6 418.331 32.76ZM435.846 28.04C436.352 27.9067 436.792 27.8933 437.166 28C437.566 28.08 437.899 28.2533 438.166 28.52C438.459 28.7867 438.672 29.12 438.806 29.52C438.966 29.92 439.046 30.36 439.046 30.84C439.072 32.1733 439.072 33.2133 439.046 33.96C439.046 34.7067 439.046 35.36 439.046 35.92V48.2C439.046 49.64 439.046 50.84 439.046 51.8C439.046 52.76 438.992 53.5467 438.886 54.16C438.806 54.7467 438.646 55.1867 438.406 55.48C438.192 55.7733 437.859 55.9733 437.406 56.08C436.952 56.2133 436.352 56.28 435.606 56.28C434.886 56.28 433.979 56.28 432.886 56.28C430.006 56.28 427.726 55.6 426.046 54.24C424.392 52.88 423.512 50.72 423.406 47.76C423.352 46.48 423.512 45.3067 423.886 44.24C424.259 43.1733 424.806 42.2667 425.526 41.52C426.272 40.7467 427.179 40.16 428.246 39.76C429.339 39.3333 430.579 39.1333 431.966 39.16H434.166V32C434.166 31.5733 434.166 31.16 434.166 30.76C434.166 30.3333 434.206 29.9467 434.286 29.6C434.366 29.2267 434.526 28.9067 434.766 28.64C435.006 28.3733 435.366 28.1733 435.846 28.04ZM428.886 50.24C429.446 51.0133 430.459 51.44 431.926 51.52C432.219 51.5467 432.499 51.56 432.766 51.56C433.032 51.5333 433.272 51.4933 433.486 51.44C433.726 51.4133 433.952 51.3733 434.166 51.32V43.92C433.232 43.76 432.379 43.6667 431.606 43.64C430.859 43.5867 430.112 43.8533 429.366 44.44C428.966 44.76 428.659 45.1733 428.446 45.68C428.232 46.16 428.112 46.68 428.086 47.24C428.059 47.7733 428.112 48.3067 428.246 48.84C428.379 49.3733 428.592 49.84 428.886 50.24ZM456.112 50.52C456.432 50.44 456.752 50.3867 457.072 50.36C457.419 50.3333 457.725 50.3733 457.992 50.48C458.285 50.5867 458.525 50.7733 458.712 51.04C458.899 51.28 458.992 51.6267 458.992 52.08C458.992 52.4 458.912 52.7067 458.752 53C458.592 53.2933 458.392 53.56 458.152 53.8C457.912 54.04 457.645 54.2533 457.352 54.44C457.059 54.6 456.779 54.7333 456.512 54.84C455.739 55.1867 454.845 55.4533 453.832 55.64C452.845 55.8267 451.819 55.8933 450.752 55.84C449.312 55.7867 447.925 55.5067 446.592 55C445.285 54.4667 444.259 53.6 443.512 52.4C442.819 51.2267 442.405 49.92 442.272 48.48C442.139 47.04 442.205 45.68 442.472 44.4C442.765 42.8533 443.259 41.6 443.952 40.64C444.672 39.6533 445.525 38.8667 446.512 38.28C447.712 37.5867 449.059 37.2267 450.552 37.2C452.045 37.1733 453.472 37.4667 454.832 38.08C455.739 38.48 456.552 39.0267 457.272 39.72C457.992 40.3867 458.539 41.2 458.912 42.16C459.019 42.4 459.099 42.6933 459.152 43.04C459.232 43.3867 459.285 43.76 459.312 44.16C459.339 44.5333 459.339 44.9067 459.312 45.28C459.285 45.6533 459.219 45.9867 459.112 46.28C458.952 46.76 458.752 47.1333 458.512 47.4C458.272 47.6667 457.965 47.8667 457.592 48C457.219 48.1333 456.765 48.2267 456.232 48.28C455.725 48.3067 455.112 48.3333 454.392 48.36C453.752 48.3867 453.152 48.4 452.592 48.4C452.032 48.4 451.459 48.4 450.872 48.4C450.285 48.3733 449.672 48.36 449.032 48.36C448.419 48.3333 447.725 48.3067 446.952 48.28C446.872 48.8133 446.939 49.28 447.152 49.68C447.392 50.0533 447.712 50.3733 448.112 50.64C448.512 50.88 448.965 51.0667 449.472 51.2C449.979 51.3333 450.472 51.4133 450.952 51.44C451.859 51.4933 452.725 51.4267 453.552 51.24C454.379 51.0267 455.232 50.7867 456.112 50.52ZM454.392 42.76C453.885 42.1733 453.352 41.7467 452.792 41.48C452.365 41.2933 451.912 41.2133 451.432 41.24C450.979 41.24 450.539 41.3067 450.112 41.44C449.339 41.6267 448.685 42.0267 448.152 42.64C448.099 42.6933 448.005 42.8267 447.872 43.04C447.739 43.2267 447.605 43.4267 447.472 43.64C447.365 43.8533 447.285 44.0533 447.232 44.24C447.179 44.4267 447.205 44.52 447.312 44.52H455.152C455.125 44.1467 455.059 43.84 454.952 43.6C454.845 43.3333 454.659 43.0533 454.392 42.76ZM470.505 46.8C471.092 47.4133 471.519 47.8667 471.785 48.16C472.079 48.4267 472.279 48.6267 472.385 48.76C472.519 48.8933 472.612 48.9733 472.665 49C472.719 49.0267 472.812 49.1067 472.945 49.24C473.079 49.3733 473.292 49.5867 473.585 49.88C473.879 50.1467 474.319 50.5867 474.905 51.2C475.385 51.68 475.772 52.24 476.065 52.88C476.385 53.4933 476.359 54.16 475.985 54.88C475.772 55.2533 475.532 55.52 475.265 55.68C474.999 55.8133 474.705 55.8667 474.385 55.84C474.092 55.8133 473.772 55.72 473.425 55.56C473.105 55.4 472.785 55.2 472.465 54.96C471.852 54.5067 471.265 53.9867 470.705 53.4C470.145 52.7867 469.692 52.32 469.345 52C469.105 51.76 468.959 51.6 468.905 51.52C468.852 51.4667 468.799 51.4267 468.745 51.4C468.692 51.3467 468.639 51.2933 468.585 51.24C468.399 51.0533 468.199 50.8667 467.985 50.68C467.772 50.4933 467.559 50.2933 467.345 50.08V51.64C467.345 51.9333 467.359 52.1467 467.385 52.28C467.385 52.5467 467.372 52.7467 467.345 52.88C467.265 53.1733 467.225 53.4533 467.225 53.72C467.199 53.8533 467.172 53.9867 467.145 54.12C467.119 54.2267 467.079 54.3467 467.025 54.48C466.999 54.5333 466.972 54.5733 466.945 54.6C466.945 54.6267 466.945 54.6667 466.945 54.72C466.919 54.7733 466.892 54.8133 466.865 54.84C466.865 54.8667 466.852 54.9067 466.825 54.96C466.692 55.2267 466.479 55.48 466.185 55.72C465.679 56.0133 465.052 56.0933 464.305 55.96C463.905 55.88 463.599 55.7333 463.385 55.52C463.145 55.36 462.985 55.1333 462.905 54.84C462.852 54.7067 462.799 54.5733 462.745 54.44C462.719 54.28 462.679 54.1333 462.625 54C462.572 53.8667 462.545 53.7467 462.545 53.64C462.545 53.5067 462.545 53.4 462.545 53.32V30.56C462.545 30.4 462.545 30.24 462.545 30.08C462.545 29.92 462.559 29.76 462.585 29.6C462.612 29.44 462.639 29.2933 462.665 29.16C462.719 29 462.772 28.8533 462.825 28.72C462.932 28.4533 463.065 28.24 463.225 28.08C463.359 27.9467 463.492 27.8533 463.625 27.8C463.785 27.72 463.932 27.6533 464.065 27.6C464.199 27.5733 464.345 27.56 464.505 27.56C464.692 27.5333 464.865 27.52 465.025 27.52C465.399 27.52 465.772 27.6267 466.145 27.84C466.492 28.08 466.745 28.3867 466.905 28.76C467.119 29.2667 467.225 29.76 467.225 30.24C467.252 30.5067 467.279 30.92 467.305 31.48C467.332 32.0133 467.345 32.4133 467.345 32.68V32.84C467.372 33.72 467.385 34.56 467.385 35.36C467.385 36.16 467.385 37.0267 467.385 37.96C467.359 38.8933 467.345 39.7867 467.345 40.64C467.345 41.4667 467.345 42.2933 467.345 43.12V43.56C467.559 43.3467 467.772 43.1467 467.985 42.96C468.199 42.7733 468.399 42.5733 468.585 42.36C468.692 42.28 468.799 42.1867 468.905 42.08L469.345 41.64C469.692 41.2933 470.145 40.8267 470.705 40.24C471.265 39.6267 471.852 39.0933 472.465 38.64C473.132 38.16 473.772 37.8667 474.385 37.76C475.025 37.6533 475.559 37.9733 475.985 38.72C476.359 39.44 476.385 40.12 476.065 40.76C475.772 41.3733 475.385 41.9467 474.905 42.48C474.319 43.0933 473.879 43.5467 473.585 43.84C473.292 44.1067 473.079 44.3067 472.945 44.44C472.812 44.5467 472.719 44.6133 472.665 44.64C472.612 44.6667 472.519 44.7467 472.385 44.88C472.279 44.9867 472.079 45.1867 471.785 45.48C471.519 45.7467 471.092 46.1867 470.505 46.8ZM484.538 40.84C484.538 41.5867 484.538 42.4267 484.538 43.36C484.565 44.2933 484.578 45.2667 484.578 46.28C484.578 47.2667 484.578 48.2533 484.578 49.24C484.578 50.2 484.565 51.0933 484.538 51.92C484.512 52.32 484.472 52.76 484.418 53.24C484.365 53.6933 484.258 54.12 484.098 54.52C483.938 54.92 483.685 55.2533 483.338 55.52C483.018 55.76 482.578 55.8667 482.018 55.84C481.192 55.7867 480.592 55.4267 480.218 54.76C479.872 54.0933 479.672 53.16 479.618 51.96C479.618 51.3467 479.605 50.64 479.578 49.84C479.578 49.04 479.565 48.2267 479.538 47.4C479.538 46.5733 479.538 45.7733 479.538 45C479.538 44.2 479.538 43.48 479.538 42.84C479.538 42.4667 479.525 42.0133 479.498 41.48C479.498 40.9467 479.512 40.4 479.538 39.84C479.565 39.28 479.632 38.7467 479.738 38.24C479.845 37.7067 480.018 37.2667 480.258 36.92C480.445 36.7067 480.712 36.5467 481.058 36.44C481.405 36.3067 481.765 36.24 482.138 36.24C482.538 36.24 482.912 36.3067 483.258 36.44C483.632 36.5733 483.898 36.76 484.058 37C484.165 37.16 484.245 37.3867 484.298 37.68C484.352 37.9733 484.392 38.3067 484.418 38.68C484.472 39.0267 484.498 39.4 484.498 39.8C484.525 40.1733 484.538 40.52 484.538 40.84ZM483.018 32.76C482.192 32.9733 481.498 32.8933 480.938 32.52C480.405 32.12 480.072 31.5333 479.938 30.76C479.832 30.2 479.872 29.7067 480.058 29.28C480.245 28.8533 480.525 28.5333 480.898 28.32C481.272 28.08 481.698 27.9733 482.178 28C482.658 28.0267 483.138 28.2133 483.618 28.56C484.072 28.88 484.392 29.2533 484.578 29.68C484.792 30.1067 484.858 30.52 484.778 30.92C484.725 31.32 484.552 31.6933 484.258 32.04C483.965 32.36 483.552 32.6 483.018 32.76Z" fill="black"/>
<defs>
<linearGradient id="paint0_linear_24_57" x1="0" y1="37" x2="709" y2="37" gradientUnits="userSpaceOnUse">
<stop offset="0.575" stop-color="#E51E1B"/>
</linearGradient>
</defs>
</svg>
